<svg width="1600" height="1303" viewBox="0 0 1600 1303" fill="none" xmlns="http://www.w3.org/2000/svg">
<g opacity="0.5">
<path d="M136.949 550.264C164.074 305.363 436.256 149.885 640.744 153.013C876.393 156.647 965.208 370.064 1144.54 305.152C1308.19 245.986 1317.83 37.894 1438.14 5.09961C1548.71 -25.0324 1723.67 100.778 2012 723.534" stroke="black" stroke-opacity="0.3" stroke-miterlimit="10"/>
<path d="M1998.25 751.128C1713.43 137.374 1538.36 6.70343 1426.23 31.257C1343.12 49.5982 1311.09 150.644 1246.06 229.629C1213.61 270.288 1173.69 300.1 1129.89 316.391C986.426 369.893 900.914 251.478 747.607 200.681C708.531 187.583 668.374 180.349 627.964 179.128C422.643 172.07 153.496 306.84 122.167 542.824" stroke="black" stroke-opacity="0.3" stroke-miterlimit="10"/>
<path d="M1984.48 778.643C1703.15 173.933 1528.09 38.4449 1414.62 57.4623C1331.21 71.4506 1297.28 167.679 1232.12 242.649C1198.89 281.845 1159.03 310.913 1115.58 327.636C974.183 382.025 888.705 275.359 734.864 226.928C695.768 214.516 655.763 207.265 615.488 205.291C409.299 195.106 143.222 308.323 107.689 535.39" stroke="black" stroke-opacity="0.3" stroke-miterlimit="10"/>
<path d="M1970.73 806.07C1692.97 210.531 1517.81 70.2669 1402.87 83.6213C1319.1 93.3413 1283.4 184.667 1218.01 255.665C1184.07 293.376 1144.3 321.715 1101.23 338.877C961.771 394.154 876.626 299.194 722.084 253.172C682.952 241.334 643.052 234.021 602.875 231.323C395.852 217.546 132.845 309.675 93.1081 527.825" stroke="black" stroke-opacity="0.3" stroke-miterlimit="10"/>
<path d="M1956.98 833.708C1682.73 247.085 1507.6 102.13 1391.1 109.822C1307.05 115.316 1269.42 201.739 1203.82 268.638C1169.16 304.883 1129.4 332.525 1086.65 350.117C949.125 406.282 864.214 323.07 708.905 279.415C669.815 268.268 630.106 260.949 590.129 257.523C382.239 240.154 122.3 311.237 78.3268 520.47" stroke="black" stroke-opacity="0.3" stroke-miterlimit="10"/>
<path d="M1943.37 861.262C1672.52 283.641 1497.29 129.896 1379.32 135.982C1295.11 140.208 1255.44 218.517 1189.71 281.655C1154.33 316.369 1114.6 343.311 1072.17 361.359C936.58 418.411 851.969 346.948 696.127 305.701C657.05 295.133 617.476 287.765 577.651 283.641C368.893 262.51 112.025 312.674 63.8472 513.033" stroke="black" stroke-opacity="0.3" stroke-miterlimit="10"/>
<path d="M1929.46 888.817C1662.28 320.24 1487.19 166.157 1367.58 161.931C1283.1 159.48 1241.4 235.549 1175.57 294.714C1139.52 327.885 1099.8 354.144 1057.7 372.643C924.042 430.583 839.631 370.826 683.221 331.988C644.154 322.051 604.711 314.66 565.046 309.844C355.421 285.121 101.622 314.07 49.2402 505.638" stroke="black" stroke-opacity="0.3" stroke-miterlimit="10"/>
<path d="M1915.71 916.369C1652.14 356.793 1477.01 197.935 1355.8 188.342C1271.12 181.495 1227.28 252.198 1161.42 307.686C1124.72 339.282 1085 364.844 1043.21 383.756C911.524 442.625 827.314 394.659 670.303 358.103C633.77 349.651 594.768 341.537 552.429 335.832C341.903 307.39 91.2062 315.589 34.621 498.156" stroke="black" stroke-opacity="0.3" stroke-miterlimit="10"/>
<path d="M1901.97 943.923C1641.83 393.391 1466.84 230.18 1344.06 214.417C1259.15 203.556 1213.14 268.891 1147.21 320.618C1109.86 350.623 1070.12 375.54 1028.64 394.955C898.883 454.712 814.939 418.41 657.295 384.347C620.595 376.402 581.692 368.373 539.687 361.949C328.56 329.831 80.8 317.068 20.0109 490.676" stroke="black" stroke-opacity="0.3" stroke-miterlimit="10"/>
<path d="M1888.19 971.436C1631.58 429.948 1456.66 262.341 1332.28 240.704C1247.16 225.87 1198.82 285.669 1133.16 333.678C1095.22 362.073 1055.45 386.36 1014.28 406.282C886.434 466.926 802.724 442.372 644.479 410.508C607.779 403.07 568.843 395.04 527.172 387.94C314.944 351.934 70.3867 318.295 5.39377 483.027" stroke="black" stroke-opacity="0.3" stroke-miterlimit="10"/>
<path d="M1874.44 998.991C1621.37 466.505 1446.48 294.588 1320.6 266.865C1235.29 248.101 1184.74 302.279 1119.08 346.738C1080.55 373.461 1040.74 397.103 999.871 417.524C873.989 479.056 790.513 466.209 631.634 436.964C594.767 430.118 555.931 422.046 514.627 414.313C301.532 374.418 60.0771 319.986 -9.18633 475.802" stroke="black" stroke-opacity="0.3" stroke-miterlimit="10"/>
<path d="M1860.69 1026.55C1611.13 503.103 1436.24 326.833 1308.75 293.025C1223.21 270.373 1170.43 318.846 1104.9 359.755C1067.23 383.252 1028.66 406.96 985.324 428.767C861.377 491.144 778.134 490.087 618.655 463.209C581.687 456.912 542.918 448.798 501.881 440.431C287.918 396.648 49.5331 321.424 -23.9008 468.365" stroke="black" stroke-opacity="0.3" stroke-miterlimit="10"/>
<path d="M1846.95 1054.1C1600.89 539.826 1426.23 359.161 1297.01 319.224C1211.23 292.642 1156.11 335.326 1090.75 372.769C1052.18 394.871 1013.52 417.903 970.843 440.006C848.831 503.397 765.855 513.92 605.742 489.451C568.674 483.746 529.939 475.589 489.335 466.545C274.538 418.791 39.1893 322.859 -38.4485 460.925" stroke="black" stroke-opacity="0.3" stroke-miterlimit="10"/>
<path d="M1833.27 1081.65C1590.68 576.255 1415.85 391.533 1285.27 345.426C1199.26 315.041 1141.8 351.765 1076.61 385.827C1037.11 406.451 998.372 428.849 956.5 451.29C836.39 515.441 753.715 537.84 592.834 515.78C555.633 510.581 516.998 502.383 476.728 492.747C261.063 440.936 28.7838 324.296 -53.0578 453.487" stroke="black" stroke-opacity="0.3" stroke-miterlimit="10"/>
<path d="M1819.42 1109.16C1580.43 612.81 1405.7 423.989 1273.48 371.585C1187.2 337.354 1127.45 368.078 1062.49 398.801C1022.05 417.903 983.183 439.752 941.879 462.488C823.77 527.528 741.261 561.632 579.914 541.981C541.012 536.728 502.348 528.956 464.074 518.695C247.609 463.038 18.2658 325.817 -67.6796 446.007" stroke="black" stroke-opacity="0.3" stroke-miterlimit="10"/>
<path d="M1805.67 1136.72C1570.19 649.408 1395.3 456.319 1261.84 397.745C1175.3 359.711 1113.21 384.349 1048.31 411.818C1006.94 429.356 968.006 450.656 927.403 473.73C811.196 539.657 728.954 585.51 567.073 568.225C528.205 563.612 489.612 555.834 451.533 544.94C234.168 484.887 7.9604 327.254 -82.3223 438.4" stroke="black" stroke-opacity="0.3" stroke-miterlimit="10"/>
<path d="M1791.93 1164.27C1559.99 685.964 1384.89 488.944 1249.97 423.905C1163.22 382.151 1098.76 400.534 1034.21 424.792C991.9 440.724 952.897 461.601 912.961 484.971C798.723 551.786 716.681 609.345 554.099 594.469C515.266 590.441 476.739 582.613 438.86 571.057C220.76 507.032 -2.44471 328.733 -96.9313 431.131" stroke="black" stroke-opacity="0.3" stroke-miterlimit="10"/>
<path d="M1778.15 1191.82C1549.74 722.73 1374.75 521.441 1238.22 450.105C1151.11 404.548 1084.41 416.635 1020.09 437.807C976.715 452.049 937.746 472.503 898.477 496.212C786.174 563.829 704.399 633.221 541.183 620.754C502.39 617.284 463.923 609.406 426.244 597.215C207.343 529.006 -12.8582 330.169 -111.549 423.692" stroke="black" stroke-opacity="0.3" stroke-miterlimit="10"/>
<path d="M1764.41 1219.38C1539.67 759.116 1364.41 554.025 1226.45 476.434C1139.04 427.158 1070.11 432.863 1005.95 451.077C961.739 463.756 922.537 483.703 884.002 507.707C773.634 576.296 692.092 657.352 528.276 647.168C489.525 644.256 451.112 636.326 413.637 623.502C193.936 551.066 -23.4296 331.902 -126.157 416.423" stroke="black" stroke-opacity="0.3" stroke-miterlimit="10"/>
<path d="M1750.66 1246.93C1529.29 795.716 1354.03 586.609 1214.7 502.468C1126.92 449.43 1055.79 448.67 991.799 463.841C946.658 474.576 907.422 494.396 869.521 518.78C761.121 588.257 679.813 681.02 515.363 673.328C476.654 670.998 438.287 663.014 401.025 649.536C180.556 572.748 -33.6735 333.086 -140.772 408.818" stroke="black" stroke-opacity="0.3" stroke-miterlimit="10"/>
<path d="M1736.88 1274.45C1519.05 832.271 1343.65 619.403 1203.06 528.627C1114.94 471.913 1041.64 464.601 977.816 476.857C931.74 485.69 892.404 505.299 855.203 529.894C748.706 600.301 667.632 704.812 502.58 699.487C463.908 697.693 425.575 689.655 388.509 675.568C167.44 594.089 -43.9537 334.565 -155.322 401.337" stroke="black" stroke-opacity="0.3" stroke-miterlimit="10"/>
<path d="M1723.17 1302C1375.38 598.991 1129.56 465.362 963.539 489.873C782.306 516.624 713.143 729.661 489.538 725.773C227.231 721.167 -34.9092 326.197 -170 393.899" stroke="black" stroke-opacity="0.3" stroke-miterlimit="10"/>
</g>
</svg>
