<svg width="1600" height="1303" viewBox="0 0 1600 1303" fill="none" xmlns="http://www.w3.org/2000/svg">
<g opacity="0.5">
<path d="M-76.0513 550.264C-48.9265 305.363 223.256 149.885 427.744 153.013C663.393 156.647 752.208 370.064 931.539 305.152C1095.19 245.986 1104.83 37.894 1225.14 5.09961C1335.71 -25.0324 1510.67 100.778 1799 723.534" stroke="black" stroke-opacity="0.3" stroke-miterlimit="10"/>
<path d="M1785.25 751.128C1500.43 137.374 1325.36 6.70343 1213.23 31.257C1130.12 49.5982 1098.09 150.644 1033.06 229.629C1000.61 270.288 960.689 300.1 916.891 316.391C773.426 369.893 687.914 251.478 534.607 200.681C495.531 187.583 455.374 180.349 414.964 179.128C209.643 172.07 -59.504 306.84 -90.8327 542.824" stroke="black" stroke-opacity="0.3" stroke-miterlimit="10"/>
<path d="M1771.48 778.643C1490.15 173.933 1315.09 38.4449 1201.62 57.4623C1118.21 71.4506 1084.28 167.679 1019.12 242.649C985.887 281.845 946.027 310.913 902.58 327.636C761.183 382.025 675.705 275.359 521.864 226.928C482.768 214.516 442.763 207.265 402.488 205.291C196.299 195.106 -69.778 308.323 -105.311 535.39" stroke="black" stroke-opacity="0.3" stroke-miterlimit="10"/>
<path d="M1757.73 806.07C1479.97 210.531 1304.81 70.2669 1189.87 83.6213C1106.1 93.3413 1070.4 184.667 1005.01 255.665C971.067 293.376 931.297 321.715 888.232 338.877C748.771 394.154 663.626 299.194 509.084 253.172C469.952 241.334 430.052 234.021 389.875 231.323C182.852 217.546 -80.1555 309.675 -119.892 527.825" stroke="black" stroke-opacity="0.3" stroke-miterlimit="10"/>
<path d="M1743.98 833.708C1469.73 247.085 1294.6 102.13 1178.1 109.822C1094.05 115.316 1056.42 201.739 990.825 268.638C956.156 304.883 916.404 332.525 873.651 350.117C736.125 406.282 651.214 323.07 495.905 279.415C456.815 268.268 417.106 260.949 377.13 257.523C169.239 240.154 -90.6991 311.237 -134.673 520.47" stroke="black" stroke-opacity="0.3" stroke-miterlimit="10"/>
<path d="M1730.37 861.262C1459.52 283.641 1284.29 129.896 1166.32 135.982C1082.11 140.208 1042.44 218.517 976.712 281.655C941.33 316.369 901.597 343.311 859.171 361.359C723.58 418.411 638.969 346.948 483.127 305.701C444.05 295.133 404.476 287.765 364.651 283.641C155.893 262.51 -100.975 312.674 -149.153 513.033" stroke="black" stroke-opacity="0.3" stroke-miterlimit="10"/>
<path d="M1716.46 888.817C1449.28 320.24 1274.19 166.157 1154.58 161.931C1070.1 159.48 1028.4 235.549 962.572 294.714C926.516 327.885 886.798 354.144 844.697 372.643C711.041 430.583 626.631 370.826 470.221 331.988C431.154 322.051 391.71 314.66 352.046 309.844C142.42 285.121 -111.379 314.07 -163.76 505.638" stroke="black" stroke-opacity="0.3" stroke-miterlimit="10"/>
<path d="M1702.71 916.369C1439.14 356.793 1264.01 197.935 1142.8 188.342C1058.12 181.495 1014.28 252.198 948.419 307.686C911.72 339.282 871.999 364.844 830.211 383.756C698.524 442.625 614.313 394.659 457.303 358.103C420.769 349.651 381.767 341.537 339.428 335.832C128.902 307.39 -121.794 315.589 -178.379 498.156" stroke="black" stroke-opacity="0.3" stroke-miterlimit="10"/>
<path d="M1688.97 943.923C1428.83 393.391 1253.84 230.18 1131.06 214.417C1046.15 203.556 1000.14 268.891 934.21 320.618C896.865 350.623 857.119 375.54 815.635 394.955C685.883 454.712 601.939 418.41 444.295 384.347C407.595 376.402 368.692 368.373 326.687 361.949C115.56 329.831 -132.2 317.068 -192.989 490.676" stroke="black" stroke-opacity="0.3" stroke-miterlimit="10"/>
<path d="M1675.19 971.436C1418.58 429.948 1243.66 262.341 1119.28 240.704C1034.17 225.87 985.821 285.669 920.161 333.678C882.219 362.073 842.453 386.36 801.285 406.282C673.435 466.926 589.725 442.372 431.48 410.508C394.78 403.07 355.844 395.04 314.172 387.94C101.945 351.934 -142.613 318.295 -207.606 483.027" stroke="black" stroke-opacity="0.3" stroke-miterlimit="10"/>
<path d="M1661.44 998.991C1408.37 466.505 1233.48 294.588 1107.6 266.865C1022.29 248.101 971.74 302.279 906.08 346.738C867.549 373.461 827.735 397.103 786.871 417.524C660.989 479.056 577.513 466.209 418.634 436.964C381.767 430.118 342.931 422.046 301.626 414.313C88.5312 374.418 -152.923 319.986 -222.187 475.802" stroke="black" stroke-opacity="0.3" stroke-miterlimit="10"/>
<path d="M1647.69 1026.55C1398.13 503.103 1223.24 326.833 1095.75 293.025C1010.21 270.373 957.427 318.846 891.9 359.755C854.232 383.252 815.663 406.96 772.324 428.767C648.377 491.144 565.134 490.087 405.655 463.209C368.687 456.912 329.918 448.798 288.881 440.431C74.9182 396.648 -163.467 321.424 -236.901 468.365" stroke="black" stroke-opacity="0.3" stroke-miterlimit="10"/>
<path d="M1633.95 1054.1C1387.89 539.826 1213.23 359.161 1084.01 319.224C998.23 292.642 943.113 335.326 877.753 372.769C839.184 394.871 800.516 417.903 757.843 440.006C635.831 503.397 552.855 513.92 392.742 489.451C355.675 483.746 316.939 475.589 276.335 466.545C61.5387 418.791 -173.81 322.859 -251.448 460.925" stroke="black" stroke-opacity="0.3" stroke-miterlimit="10"/>
<path d="M1620.27 1081.65C1377.68 576.255 1202.86 391.533 1072.27 345.426C986.257 315.041 928.804 351.765 863.611 385.827C824.108 406.451 785.373 428.849 743.501 451.29C623.391 515.441 540.715 537.84 379.834 515.78C342.634 510.581 303.998 502.383 263.728 492.747C48.0638 440.936 -184.216 324.296 -266.057 453.487" stroke="black" stroke-opacity="0.3" stroke-miterlimit="10"/>
<path d="M1606.42 1109.16C1367.43 612.81 1192.7 423.989 1060.48 371.585C974.203 337.354 914.449 368.078 849.489 398.801C809.052 417.903 770.183 439.752 728.879 462.488C610.77 527.528 528.261 561.632 366.914 541.981C328.012 536.728 289.348 528.956 251.074 518.695C34.6092 463.038 -194.734 325.817 -280.68 446.007" stroke="black" stroke-opacity="0.3" stroke-miterlimit="10"/>
<path d="M1592.67 1136.72C1357.19 649.408 1182.3 456.319 1048.84 397.745C962.297 359.711 900.207 384.349 835.314 411.818C793.943 429.356 755.007 450.656 714.403 473.73C598.197 539.657 515.955 585.51 354.073 568.225C315.205 563.612 276.612 555.834 238.534 544.94C21.168 484.887 -205.039 327.254 -295.322 438.4" stroke="black" stroke-opacity="0.3" stroke-miterlimit="10"/>
<path d="M1578.93 1164.27C1346.99 685.964 1171.89 488.944 1036.97 423.905C950.223 382.151 885.764 400.534 821.205 424.792C778.9 440.724 739.897 461.601 699.961 484.971C585.723 551.786 503.681 609.345 341.099 594.469C302.266 590.441 263.739 582.613 225.86 571.057C7.75986 507.032 -215.445 328.733 -309.931 431.131" stroke="black" stroke-opacity="0.3" stroke-miterlimit="10"/>
<path d="M1565.15 1191.82C1336.74 722.73 1161.75 521.441 1025.22 450.105C938.108 404.548 871.414 416.635 807.088 437.807C763.715 452.049 724.746 472.503 685.477 496.212C573.174 563.829 491.399 633.221 328.183 620.754C289.39 617.284 250.923 609.406 213.244 597.215C-5.65664 529.006 -225.858 330.169 -324.549 423.692" stroke="black" stroke-opacity="0.3" stroke-miterlimit="10"/>
<path d="M1551.41 1219.38C1326.67 759.116 1151.41 554.025 1013.45 476.434C926.035 427.158 857.105 432.863 792.947 451.077C748.739 463.756 709.537 483.703 671.002 507.707C560.634 576.296 479.092 657.352 315.276 647.168C276.525 644.256 238.112 636.326 200.637 623.502C-19.0639 551.066 -236.43 331.902 -339.157 416.423" stroke="black" stroke-opacity="0.3" stroke-miterlimit="10"/>
<path d="M1537.66 1246.93C1316.29 795.716 1141.03 586.609 1001.7 502.468C913.923 449.43 842.791 448.67 778.799 463.841C733.658 474.576 694.422 494.396 656.521 518.78C548.121 588.257 466.813 681.02 302.363 673.328C263.654 670.998 225.287 663.014 188.025 649.536C-32.444 572.748 -246.674 333.086 -353.772 408.818" stroke="black" stroke-opacity="0.3" stroke-miterlimit="10"/>
<path d="M1523.88 1274.45C1306.05 832.271 1130.65 619.403 990.056 528.627C901.942 471.913 828.641 464.601 764.816 476.857C718.741 485.69 679.405 505.299 642.204 529.894C535.706 600.301 454.632 704.812 289.581 699.487C250.909 697.693 212.575 689.655 175.51 675.568C-45.5595 594.089 -256.953 334.565 -368.322 401.337" stroke="black" stroke-opacity="0.3" stroke-miterlimit="10"/>
<path d="M1510.17 1302C1162.38 598.991 916.557 465.362 750.538 489.873C569.306 516.624 500.142 729.661 276.537 725.773C14.2304 721.167 -247.91 326.197 -383 393.899" stroke="black" stroke-opacity="0.3" stroke-miterlimit="10"/>
</g>
</svg>
