<svg width="1600" height="908" viewBox="0 0 1600 908" fill="none" xmlns="http://www.w3.org/2000/svg">
<path d="M718.469 549.264C697.92 304.363 491.725 148.885 336.813 152.013C158.294 155.647 91.0108 369.064 -44.8436 304.152C-168.819 244.986 -176.123 36.894 -267.266 4.09961C-351.028 -26.0324 -483.571 99.7782 -702 722.534" stroke="black" stroke-opacity="0.3" stroke-miterlimit="10"/>
<path d="M-691.586 750.128C-475.811 136.374 -343.192 5.70355 -258.242 30.2571C-195.281 48.5983 -171.017 149.644 -121.756 228.629C-97.1685 269.288 -66.9272 299.101 -33.7472 315.391C74.9364 368.893 139.717 250.478 255.857 199.681C285.459 186.583 315.881 179.349 346.494 178.128C502.037 171.07 705.933 305.84 729.666 541.824" stroke="black" stroke-opacity="0.3" stroke-miterlimit="10"/>
<path d="M-681.148 777.643C-468.028 172.933 -335.408 37.4449 -249.447 56.4623C-186.259 70.4506 -160.554 166.679 -111.192 241.649C-86.0156 280.845 -55.8195 309.913 -22.9053 326.636C84.2112 381.025 148.966 274.359 265.511 225.928C295.128 213.516 325.435 206.265 355.945 204.291C512.146 194.106 713.716 307.323 740.635 534.39" stroke="black" stroke-opacity="0.3" stroke-miterlimit="10"/>
<path d="M-670.734 805.07C-460.318 209.53 -327.623 69.2668 -240.55 82.6212C-177.084 92.3412 -150.039 183.667 -100.5 254.665C-74.789 292.376 -44.6609 320.715 -12.0362 337.877C93.6143 393.154 158.117 298.194 275.192 252.172C304.837 240.334 335.064 233.021 365.5 230.323C522.333 216.546 721.578 308.674 751.68 526.825" stroke="black" stroke-opacity="0.3" stroke-miterlimit="10"/>
<path d="M-660.32 832.708C-452.558 246.085 -319.888 101.13 -231.627 108.822C-167.959 114.316 -139.448 200.739 -89.7569 267.638C-63.493 303.883 -33.3784 331.525 -0.990316 349.117C103.194 405.282 167.52 322.07 285.176 278.415C314.789 267.268 344.871 259.949 375.156 256.523C532.646 239.154 729.565 310.237 762.878 519.47" stroke="black" stroke-opacity="0.3" stroke-miterlimit="10"/>
<path d="M-650.008 860.262C-444.823 282.641 -312.078 128.896 -222.705 134.981C-158.91 139.208 -128.858 217.517 -79.0654 280.655C-52.2612 315.369 -22.1612 342.311 9.97924 360.358C112.698 417.411 176.796 345.948 294.856 304.701C324.46 294.133 354.439 286.765 384.609 282.641C542.756 261.51 737.35 311.674 773.848 512.033" stroke="black" stroke-opacity="0.3" stroke-miterlimit="10"/>
<path d="M-639.473 887.817C-437.068 319.24 -304.424 165.157 -213.812 160.931C-149.815 158.479 -118.221 234.549 -68.3532 293.714C-41.0389 326.885 -10.9498 353.143 20.9442 371.643C122.197 429.583 186.143 369.826 304.634 330.988C334.229 321.051 364.11 313.66 394.158 308.843C552.963 284.121 745.232 313.07 784.914 504.638" stroke="black" stroke-opacity="0.3" stroke-miterlimit="10"/>
<path d="M-629.055 915.369C-429.38 355.793 -296.711 196.935 -204.886 187.342C-140.737 180.495 -107.525 251.198 -57.632 306.686C-29.8295 338.283 0.261494 363.844 31.9181 382.756C131.68 441.625 195.474 393.659 314.42 357.103C342.096 348.651 371.643 340.537 403.717 334.832C563.204 306.39 753.122 314.589 795.989 497.156" stroke="black" stroke-opacity="0.3" stroke-miterlimit="10"/>
<path d="M-618.645 942.923C-421.573 392.391 -289.005 229.18 -195.992 213.417C-131.666 202.556 -96.8118 267.891 -46.8679 319.618C-18.5763 349.623 11.534 374.54 42.9603 393.955C141.256 453.712 204.848 417.41 324.274 383.348C352.077 375.403 381.547 367.373 413.369 360.949C573.311 328.831 761.005 316.068 807.056 489.676" stroke="black" stroke-opacity="0.3" stroke-miterlimit="10"/>
<path d="M-608.203 970.436C-413.811 428.948 -281.293 261.341 -187.067 239.704C-122.59 224.87 -85.9661 284.669 -36.2244 332.678C-7.48107 361.073 22.6445 385.36 53.8313 405.282C150.686 465.926 214.102 441.373 333.982 409.508C361.785 402.07 391.281 394.04 422.85 386.941C583.626 350.934 768.893 317.295 818.13 482.027" stroke="black" stroke-opacity="0.3" stroke-miterlimit="10"/>
<path d="M-597.789 997.991C-406.076 465.504 -273.583 293.587 -178.22 265.864C-113.591 247.1 -75.2992 301.279 -25.5575 345.737C3.63227 372.461 33.7941 396.103 64.751 416.524C160.114 478.056 223.353 465.209 343.714 435.964C371.643 429.118 401.063 421.046 432.354 413.312C593.787 373.418 776.704 318.986 829.175 474.802" stroke="black" stroke-opacity="0.3" stroke-miterlimit="10"/>
<path d="M-587.375 1025.55C-398.316 502.104 -265.823 325.834 -169.247 292.025C-104.441 269.373 -64.4555 317.846 -14.8149 358.755C13.7209 382.252 42.939 405.96 75.7716 427.767C169.669 490.144 232.731 489.087 353.547 462.209C381.551 455.913 410.921 447.799 442.01 439.431C604.1 395.649 784.692 320.424 840.322 467.365" stroke="black" stroke-opacity="0.3" stroke-miterlimit="10"/>
<path d="M-576.961 1053.1C-390.556 538.826 -258.24 358.161 -160.349 318.224C-95.3665 291.642 -53.6118 334.326 -4.09759 371.769C25.1206 393.871 54.4146 416.903 86.7416 439.006C179.173 502.397 242.033 512.92 363.329 488.451C391.409 482.746 420.754 474.589 451.514 465.546C614.236 417.791 792.527 321.859 851.343 459.925" stroke="black" stroke-opacity="0.3" stroke-miterlimit="10"/>
<path d="M-566.602 1080.65C-382.825 575.255 -250.383 390.533 -151.456 344.426C-86.2961 314.041 -42.7721 350.765 6.61573 384.827C36.5416 405.451 65.8862 427.849 97.6066 450.29C188.597 514.441 251.23 536.84 373.107 514.78C401.289 509.581 430.557 501.383 461.065 491.747C624.444 439.936 800.41 323.296 862.41 452.487" stroke="black" stroke-opacity="0.3" stroke-miterlimit="10"/>
<path d="M-556.105 1108.16C-375.059 611.81 -242.692 422.989 -142.527 370.585C-77.1648 336.354 -31.8969 367.078 17.314 397.801C47.9476 416.903 77.3933 438.752 108.684 461.488C198.158 526.528 260.664 560.632 382.895 540.981C412.366 535.728 441.656 527.956 470.651 517.695C634.637 462.038 808.379 324.817 873.488 445.007" stroke="black" stroke-opacity="0.3" stroke-miterlimit="10"/>
<path d="M-545.695 1135.72C-367.303 648.408 -234.81 455.319 -133.709 396.745C-68.1449 358.71 -21.1077 383.348 28.0526 410.818C59.3939 428.356 88.8902 449.656 119.65 472.73C207.684 538.657 269.987 584.51 392.623 567.225C422.067 562.612 451.304 554.834 480.151 543.94C644.819 483.887 816.185 326.254 884.58 437.4" stroke="black" stroke-opacity="0.3" stroke-miterlimit="10"/>
<path d="M-535.285 1163.27C-359.572 684.964 -226.927 487.944 -124.714 422.905C-58.9985 381.151 -10.1667 399.534 38.7409 423.792C70.7899 439.724 100.337 460.601 130.591 483.971C217.134 550.786 279.285 608.345 402.452 593.469C431.869 589.441 461.057 581.613 489.752 570.057C654.977 506.032 824.068 327.733 895.647 430.131" stroke="black" stroke-opacity="0.3" stroke-miterlimit="10"/>
<path d="M-524.844 1190.82C-351.809 721.73 -219.241 520.441 -115.814 449.105C-49.8207 403.548 0.704517 415.635 49.4352 436.807C82.293 451.049 111.814 471.503 141.563 495.212C226.64 562.829 288.59 632.221 412.236 619.754C441.624 616.284 470.765 608.406 499.309 596.215C665.14 528.006 831.957 329.169 906.721 422.692" stroke="black" stroke-opacity="0.3" stroke-miterlimit="10"/>
<path d="M-514.434 1218.38C-344.18 758.117 -211.409 553.025 -106.896 475.434C-40.6744 426.158 11.5442 431.863 60.1485 450.078C93.6382 462.756 123.337 482.703 152.53 506.707C236.14 575.296 297.913 656.353 422.014 646.168C451.37 643.257 480.47 635.327 508.86 622.502C675.297 550.067 839.965 330.902 917.788 415.424" stroke="black" stroke-opacity="0.3" stroke-miterlimit="10"/>
<path d="M-504.02 1245.93C-336.318 794.716 -203.547 585.609 -97.9981 501.468C-31.4989 448.431 22.3879 447.67 70.8658 462.841C105.063 473.576 134.787 493.396 163.5 517.781C245.619 587.257 307.215 680.02 431.796 672.328C461.12 669.998 490.186 662.014 518.415 648.536C685.433 571.748 847.726 332.086 928.859 407.818" stroke="black" stroke-opacity="0.3" stroke-miterlimit="10"/>
<path d="M-493.578 1273.45C-328.556 831.271 -195.684 618.403 -89.1742 527.626C-22.4223 470.912 33.1074 463.601 81.459 475.857C116.364 484.689 146.164 504.299 174.346 528.894C255.024 599.301 316.443 703.812 441.48 698.487C470.776 696.693 499.816 688.655 527.896 674.567C695.369 593.089 855.513 333.565 939.882 400.337" stroke="black" stroke-opacity="0.3" stroke-miterlimit="10"/>
<path d="M-483.191 1301C-219.722 597.991 -33.4943 464.362 92.2753 488.874C229.57 515.625 281.966 728.661 451.361 724.773C650.075 720.167 848.662 325.197 951.002 392.899" stroke="black" stroke-opacity="0.3" stroke-miterlimit="10"/>
<path d="M603.533 569.264C624.081 324.363 830.277 168.885 985.189 172.013C1163.71 175.647 1230.99 389.064 1366.85 324.152C1490.82 264.986 1498.12 56.894 1589.27 24.0996C1673.03 -6.03236 1805.57 119.778 2024 742.534" stroke="black" stroke-opacity="0.3" stroke-miterlimit="10"/>
<path d="M2013.59 770.128C1797.81 156.374 1665.19 25.7036 1580.24 50.2571C1517.28 68.5983 1493.02 169.644 1443.76 248.629C1419.17 289.288 1388.93 319.101 1355.75 335.391C1247.07 388.893 1182.28 270.478 1066.14 219.681C1036.54 206.583 1006.12 199.349 975.508 198.128C819.964 191.07 616.069 325.84 592.335 561.824" stroke="black" stroke-opacity="0.3" stroke-miterlimit="10"/>
<path d="M2003.15 797.643C1790.03 192.933 1657.41 57.4449 1571.45 76.4623C1508.26 90.4506 1482.56 186.679 1433.19 261.649C1408.02 300.845 1377.82 329.913 1344.91 346.636C1237.79 401.025 1173.04 294.359 1056.49 245.928C1026.87 233.516 996.567 226.265 966.056 224.291C809.855 214.106 608.285 327.323 581.367 554.39" stroke="black" stroke-opacity="0.3" stroke-miterlimit="10"/>
<path d="M1992.74 825.07C1782.32 229.53 1649.62 89.2668 1562.55 102.621C1499.09 112.341 1472.04 203.667 1422.5 274.665C1396.79 312.376 1366.66 340.715 1334.04 357.877C1228.39 413.154 1163.88 318.194 1046.81 272.172C1017.16 260.334 986.938 253.021 956.501 250.323C799.669 236.546 600.424 328.674 570.321 546.825" stroke="black" stroke-opacity="0.3" stroke-miterlimit="10"/>
<path d="M1982.32 852.708C1774.56 266.085 1641.89 121.13 1553.63 128.822C1489.96 134.316 1461.45 220.739 1411.76 287.638C1385.49 323.883 1355.38 351.525 1322.99 369.117C1218.81 425.282 1154.48 342.07 1036.83 298.415C1007.21 287.268 977.13 279.949 946.846 276.523C789.356 259.154 592.436 330.237 559.123 539.47" stroke="black" stroke-opacity="0.3" stroke-miterlimit="10"/>
<path d="M1972.01 880.262C1766.82 302.641 1634.08 148.896 1544.71 154.981C1480.91 159.208 1450.86 237.517 1401.07 300.655C1374.26 335.369 1344.16 362.311 1312.02 380.358C1209.3 437.411 1145.21 365.948 1027.15 324.701C997.542 314.133 967.562 306.765 937.393 302.641C779.245 281.51 584.651 331.674 548.154 532.033" stroke="black" stroke-opacity="0.3" stroke-miterlimit="10"/>
<path d="M1961.47 907.817C1759.07 339.24 1626.43 185.157 1535.81 180.931C1471.82 178.48 1440.22 254.549 1390.35 313.714C1363.04 346.885 1332.95 373.143 1301.06 391.643C1199.8 449.583 1135.86 389.826 1017.37 350.988C987.772 341.051 957.892 333.66 927.843 328.844C769.039 304.121 576.77 333.07 537.088 524.638" stroke="black" stroke-opacity="0.3" stroke-miterlimit="10"/>
<path d="M1951.06 935.369C1751.38 375.793 1618.71 216.935 1526.89 207.342C1462.74 200.495 1429.53 271.198 1379.63 326.686C1351.83 358.283 1321.74 383.844 1290.08 402.756C1190.32 461.625 1126.53 413.659 1007.58 377.103C979.906 368.651 950.359 360.537 918.285 354.832C758.798 326.39 568.88 334.589 526.013 517.156" stroke="black" stroke-opacity="0.3" stroke-miterlimit="10"/>
<path d="M1940.65 962.923C1743.57 412.391 1611.01 249.18 1517.99 233.417C1453.67 222.556 1418.81 287.891 1368.87 339.618C1340.58 369.623 1310.47 394.54 1279.04 413.955C1180.75 473.712 1117.15 437.41 997.728 403.348C969.925 395.403 940.454 387.373 908.632 380.949C748.691 348.831 560.997 336.068 514.945 509.676" stroke="black" stroke-opacity="0.3" stroke-miterlimit="10"/>
<path d="M1930.2 990.436C1735.81 448.948 1603.29 281.341 1509.07 259.704C1444.59 244.87 1407.97 304.669 1358.23 352.678C1329.48 381.073 1299.36 405.36 1268.17 425.282C1171.32 485.926 1107.9 461.373 988.019 429.508C960.217 422.07 930.72 414.04 899.152 406.941C738.376 370.934 553.108 337.295 503.872 502.027" stroke="black" stroke-opacity="0.3" stroke-miterlimit="10"/>
<path d="M1919.79 1017.99C1728.08 485.504 1595.58 313.587 1500.22 285.864C1435.59 267.1 1397.3 321.279 1347.56 365.737C1318.37 392.461 1288.21 416.103 1257.25 436.524C1161.89 498.056 1098.65 485.209 978.288 455.964C950.359 449.118 920.938 441.046 889.647 433.312C728.214 393.418 545.297 338.986 492.826 494.802" stroke="black" stroke-opacity="0.3" stroke-miterlimit="10"/>
<path d="M1909.38 1045.55C1720.32 522.104 1587.82 345.834 1491.25 312.025C1426.44 289.373 1386.46 337.846 1336.82 378.755C1308.28 402.252 1279.06 425.96 1246.23 447.767C1152.33 510.144 1089.27 509.087 968.455 482.209C940.45 475.913 911.08 467.799 879.992 459.431C717.901 415.649 537.31 340.424 481.679 487.365" stroke="black" stroke-opacity="0.3" stroke-miterlimit="10"/>
<path d="M1898.96 1073.1C1712.56 558.826 1580.24 378.161 1482.35 338.224C1417.37 311.642 1375.61 354.326 1326.1 391.769C1296.88 413.871 1267.59 436.903 1235.26 459.006C1142.83 522.397 1079.97 532.92 958.673 508.451C930.592 502.746 901.247 494.589 870.488 485.546C707.766 437.791 529.474 341.859 470.659 479.925" stroke="black" stroke-opacity="0.3" stroke-miterlimit="10"/>
<path d="M1888.6 1100.65C1704.83 595.255 1572.38 410.533 1473.46 364.426C1408.3 334.04 1364.77 370.765 1315.39 404.827C1285.46 425.451 1256.12 447.849 1224.39 470.289C1133.4 534.441 1070.77 556.84 948.895 534.779C920.713 529.581 891.444 521.383 860.937 511.747C697.558 459.936 521.591 343.296 459.591 472.487" stroke="black" stroke-opacity="0.3" stroke-miterlimit="10"/>
<path d="M1878.11 1128.16C1697.06 631.81 1564.69 442.989 1464.53 390.585C1399.17 356.354 1353.9 387.078 1304.69 417.801C1274.05 436.903 1244.61 458.752 1213.32 481.488C1123.84 546.528 1061.34 580.632 939.106 560.981C909.636 555.728 880.346 547.956 851.351 537.695C687.365 482.038 513.623 344.817 448.514 465.007" stroke="black" stroke-opacity="0.3" stroke-miterlimit="10"/>
<path d="M1867.7 1155.72C1689.3 668.408 1556.81 475.319 1455.71 416.745C1390.15 378.71 1343.11 403.348 1293.95 430.818C1262.61 448.356 1233.11 469.656 1202.35 492.73C1114.32 558.657 1052.01 604.51 929.379 587.225C899.934 582.612 870.697 574.834 841.851 563.94C677.182 503.887 505.816 346.254 437.421 457.4" stroke="black" stroke-opacity="0.3" stroke-miterlimit="10"/>
<path d="M1857.29 1183.27C1681.57 704.964 1548.93 507.944 1446.72 442.905C1381 401.151 1332.17 419.534 1283.26 443.792C1251.21 459.724 1221.66 480.601 1191.41 503.972C1104.87 570.786 1042.72 628.345 919.55 613.469C890.132 609.441 860.945 601.613 832.249 590.057C667.025 526.032 497.934 347.733 426.354 450.131" stroke="black" stroke-opacity="0.3" stroke-miterlimit="10"/>
<path d="M1846.85 1210.82C1673.81 741.73 1541.24 540.441 1437.82 469.105C1371.82 423.548 1321.3 435.635 1272.57 456.807C1239.71 471.049 1210.19 491.503 1180.44 515.212C1095.36 582.829 1033.41 652.221 909.765 639.754C880.378 636.284 851.236 628.406 822.692 616.215C656.861 548.006 490.045 349.169 415.281 442.692" stroke="black" stroke-opacity="0.3" stroke-miterlimit="10"/>
<path d="M1836.44 1238.38C1666.18 778.117 1533.41 573.025 1428.9 495.434C1362.68 446.158 1310.46 451.863 1261.85 470.078C1228.36 482.756 1198.66 502.703 1169.47 526.707C1085.86 595.296 1024.09 676.353 899.987 666.168C870.631 663.257 841.531 655.327 813.142 642.502C646.704 570.067 482.036 350.902 404.214 435.424" stroke="black" stroke-opacity="0.3" stroke-miterlimit="10"/>
<path d="M1826.02 1265.93C1658.32 814.716 1525.55 605.609 1420 521.468C1353.5 468.431 1299.61 467.67 1251.14 482.841C1216.94 493.576 1187.21 513.396 1158.5 537.781C1076.38 607.257 1014.79 700.02 890.205 692.328C860.881 689.998 831.816 682.014 803.587 668.536C636.568 591.748 474.276 352.086 393.142 427.818" stroke="black" stroke-opacity="0.3" stroke-miterlimit="10"/>
<path d="M1815.58 1293.45C1650.56 851.271 1517.69 638.403 1411.18 547.626C1344.42 490.912 1288.89 483.601 1240.54 495.857C1205.64 504.689 1175.84 524.299 1147.66 548.894C1066.98 619.301 1005.56 723.812 880.522 718.487C851.225 716.693 822.185 708.655 794.106 694.567C626.632 613.089 466.488 353.565 382.119 420.337" stroke="black" stroke-opacity="0.3" stroke-miterlimit="10"/>
<path d="M1805.19 1321C1541.72 617.991 1355.5 484.362 1229.73 508.874C1092.43 535.625 1040.04 748.661 870.641 744.773C671.927 740.167 473.339 345.197 371 412.899" stroke="black" stroke-opacity="0.3" stroke-miterlimit="10"/>
</svg>
