<svg width="69" height="69" viewBox="0 0 69 69" fill="none" xmlns="http://www.w3.org/2000/svg">
<path fill-rule="evenodd" clip-rule="evenodd" d="M34.5 69C53.5538 69 69 53.5538 69 34.5C69 15.4462 53.5538 0 34.5 0C15.4462 0 0 15.4462 0 34.5C0 53.5538 15.4462 69 34.5 69Z" fill="#FEDC5A" fill-opacity="0.1"/>
<path d="M30.9999 35.3333C30.1199 35.7733 29.3865 36.4266 28.8399 37.24C28.5332 37.7066 28.5332 38.2933 28.8399 38.76C29.3865 39.5733 30.1199 40.2266 30.9999 40.6666" stroke="#FEDC5A" stroke-width="2" stroke-linecap="round" stroke-linejoin="round"/>
<path d="M39.2803 35.3333C40.1603 35.7733 40.8936 36.4266 41.4403 37.24C41.7469 37.7066 41.7469 38.2933 41.4403 38.76C40.8936 39.5733 40.1603 40.2266 39.2803 40.6666" stroke="#FEDC5A" stroke-width="2" stroke-linecap="round" stroke-linejoin="round"/>
<path d="M30.9998 47.3334H38.9998C45.6665 47.3334 48.3332 44.6667 48.3332 38V30C48.3332 23.3334 45.6665 20.6667 38.9998 20.6667H30.9998C24.3332 20.6667 21.6665 23.3334 21.6665 30V38C21.6665 44.6667 24.3332 47.3334 30.9998 47.3334Z" stroke="#FEDC5A" stroke-width="2" stroke-linecap="round" stroke-linejoin="round"/>
<path d="M21.9731 28.68L47.5998 28.6667" stroke="#FEDC5A" stroke-width="2" stroke-linecap="round" stroke-linejoin="round"/>
</svg>
