<svg width="1600" height="566" viewBox="0 0 1600 566" fill="none" xmlns="http://www.w3.org/2000/svg">
<g opacity="0.6">
<path d="M0.352539 1C357.102 29.9797 851.812 359.36 806.158 473.895C776.221 548.979 425.483 547.293 329.66 560.834C198.985 579.276 446.414 510.238 496.808 430.426C556.682 335.583 465.799 86.2529 754.117 130.091C1005.74 168.371 1060.22 292.351 1240.59 289.479C1403.73 286.845 1530.81 182.781 1612.31 95.8425" stroke="black" stroke-opacity="0.3" stroke-miterlimit="10"/>
<path d="M0.322266 8.6001C342.103 40.9124 818.027 359.899 779.982 469.64C755.035 541.536 422.859 539.139 334.195 551.31C211.279 568.158 448.155 501.807 498.125 425.235C557.999 333.423 475.373 94.8146 753.713 137.085C1002.02 174.693 1052.14 301.558 1234.13 301.743C1397.56 301.584 1529.66 199.774 1614.75 114.692" stroke="black" stroke-opacity="0.3" stroke-miterlimit="10"/>
<path d="M0.29248 16.1611C327.105 51.8061 784.244 360.374 753.832 465.346C733.874 534.054 420.234 530.945 338.731 541.747C223.548 556.948 449.897 493.338 499.443 419.993C559.317 331.21 484.973 103.35 753.309 144.04C998.293 180.99 1044.05 311.069 1227.69 313.967C1391.39 316.601 1528.5 216.74 1617.22 133.502" stroke="black" stroke-opacity="0.3" stroke-miterlimit="10"/>
<path d="M0.29248 23.7754C312.137 62.7662 750.489 360.862 727.687 461.105C712.719 526.586 417.615 522.805 343.271 532.237C235.772 545.699 451.668 484.868 500.765 414.764C560.813 328.997 494.578 111.887 752.934 150.983C994.576 187.287 1035.91 320.448 1221.2 326.178C1385.18 331.302 1527.33 233.72 1619.66 152.3" stroke="black" stroke-opacity="0.3" stroke-miterlimit="10"/>
<path d="M0.274902 31.3623C297.3 73.6858 716.718 361.282 701.55 456.836C691.571 519.077 415.028 514.624 347.844 522.62C248.054 534.475 453.472 476.411 502.094 409.534C562.243 326.797 504.19 120.435 752.543 157.938C990.866 193.582 1027.81 329.681 1214.8 338.402C1379 346.055 1526.24 250.686 1622.14 171.11" stroke="black" stroke-opacity="0.3" stroke-miterlimit="10"/>
<path d="M0.249512 38.9502C282.356 84.6195 682.939 361.678 675.379 452.569C670.39 511.529 412.433 506.445 352.384 513.071C260.377 523.213 455.317 467.941 503.416 404.305C563.689 324.584 513.794 128.998 752.168 164.906C987.124 199.906 1019.68 338.982 1208.33 350.64C1372.81 360.809 1525.17 267.652 1624.61 189.934" stroke="black" stroke-opacity="0.3" stroke-miterlimit="10"/>
<path d="M0.249512 46.5503C267.413 95.5523 649.135 361.875 649.235 448.314C649.235 503.941 409.738 498.238 356.924 503.507C272.652 511.898 457.163 459.484 504.738 399.088C565.161 322.371 523.374 137.52 751.719 171.874C983.357 206.202 1011.47 348.255 1201.85 362.876C1366.5 375.522 1523.89 284.671 1627.03 208.757" stroke="black" stroke-opacity="0.3" stroke-miterlimit="10"/>
<path d="M0.228027 54.1382C252.447 106.473 615.284 362.073 623.093 444.046C628.082 496.315 407.297 490.019 361.493 493.957C284.929 500.543 459.088 451.028 506.189 393.846C566.811 320.079 532.982 146.307 751.498 178.817C979.668 212.762 1003.47 357.489 1195.56 375.088C1360.54 390.21 1522.92 301.638 1629.65 227.555" stroke="black" stroke-opacity="0.3" stroke-miterlimit="10"/>
<path d="M0.197266 61.7266C237.498 117.407 581.325 362.193 596.917 439.779C606.746 488.636 404.821 481.787 366.028 484.395C297.247 489.032 461.003 442.572 507.405 388.643C568.203 317.933 542.332 154.896 750.993 185.786C975.82 219.099 995.254 366.711 1189 387.326C1354.2 404.898 1521.67 318.631 1631.99 246.38" stroke="black" stroke-opacity="0.3" stroke-miterlimit="10"/>
<path d="M0.197266 69.3125C222.555 128.326 547.272 362.205 570.772 435.51C585.341 480.916 402.376 473.513 370.568 474.843C309.596 477.386 462.874 434.114 508.728 383.412C569.799 315.719 552.037 163.431 750.719 192.766C972.203 225.447 987.246 375.93 1182.66 399.575C1348.11 419.584 1520.65 335.622 1634.58 265.215" stroke="black" stroke-opacity="0.3" stroke-miterlimit="10"/>
<path d="M0.175781 76.9004C207.614 139.259 513.022 362.139 544.631 431.243C563.79 473.158 400.135 465.215 374.987 465.294C321.999 465.452 464.799 425.671 509.929 378.183C571.3 313.493 561.495 172.006 750.099 199.721C968.215 231.783 978.867 385.112 1175.98 411.8C1341.68 434.193 1519.26 352.602 1636.78 284.026" stroke="black" stroke-opacity="0.3" stroke-miterlimit="10"/>
<path d="M0.149902 84.5005C192.67 150.179 478.544 361.994 518.485 426.987C542.06 465.359 397.339 459.036 379.677 455.73C335.07 458.364 466.993 417.226 511.375 372.967C573.095 311.279 571.249 180.555 749.823 206.689C964.621 238.106 970.883 394.28 1169.64 424.037C1335.62 448.867 1518.23 369.594 1639.38 302.849" stroke="black" stroke-opacity="0.3" stroke-miterlimit="10"/>
<path d="M0.149902 92.0874C177.701 161.112 443.717 361.796 492.315 422.719C520.106 457.547 394.795 451.014 384.217 446.179C347.444 447.391 469.213 408.796 512.697 367.737C574.841 309.066 580.829 189.103 749.424 213.618C960.879 244.402 962.775 403.408 1163.2 436.234C1329.45 463.462 1517.08 386.547 1641.85 321.633" stroke="black" stroke-opacity="0.3" stroke-miterlimit="10"/>
<path d="M0.132812 99.6753C162.766 172.032 408.524 361.612 466.178 418.451C497.911 449.749 392.233 442.992 388.84 436.616C359.876 436.393 471.491 400.366 514.102 362.521C576.745 306.853 590.516 197.64 749.132 220.613C957.245 250.751 954.775 412.576 1156.85 448.498C1323.37 478.097 1516.09 403.566 1644.37 340.483" stroke="black" stroke-opacity="0.3" stroke-miterlimit="10"/>
<path d="M0.0942383 107.264C147.809 182.966 372.885 361.494 440.019 414.185C475.444 441.992 389.675 434.971 393.292 427.067C372.162 425.394 473.673 391.962 515.335 357.253C578.577 304.562 600.032 206.137 748.645 227.529C953.439 257.023 946.603 421.653 1150.3 460.684C1317.12 492.667 1514.81 420.507 1646.76 359.255" stroke="black" stroke-opacity="0.3" stroke-miterlimit="10"/>
<path d="M0.0942383 114.851C132.865 193.886 336.886 361.56 413.849 409.916C452.742 434.325 387.105 426.948 397.858 417.517C384.536 414.408 476.018 383.571 516.658 352.075C580.598 302.52 609.637 214.699 748.246 234.537C949.722 263.358 938.545 430.808 1143.86 472.96C1311.01 507.288 1513.66 437.526 1649.23 378.118" stroke="black" stroke-opacity="0.3" stroke-miterlimit="10"/>
<path d="M0.0639648 122.438C117.916 204.82 300.332 361.889 387.699 405.649C429.885 426.791 384.555 418.927 402.393 407.954C396.904 403.409 478.433 375.22 517.975 346.846C582.713 300.4 619.237 223.222 747.866 241.466C945.999 269.616 930.507 439.845 1137.4 485.158C1304.87 521.831 1512.51 454.479 1651.66 396.902" stroke="black" stroke-opacity="0.3" stroke-miterlimit="10"/>
<path d="M0.0512695 130.039C102.96 215.739 263.672 362.574 361.566 401.394C406.995 419.4 381.998 410.904 406.945 398.403C409.291 392.423 480.965 366.895 519.209 341.616C584.921 298.345 628.779 231.744 747.379 248.46C942.195 275.925 922.411 448.973 1130.87 497.422C1298.67 536.426 1511.3 471.498 1654.05 415.752" stroke="black" stroke-opacity="0.3" stroke-miterlimit="10"/>
<path d="M0.0512695 137.626C88.0162 226.673 226.949 363.615 335.421 397.126C384.118 412.169 383.046 404.898 411.486 388.854C423.336 382.162 483.559 358.557 520.656 336.401C587.466 296.382 638.508 240.241 747.105 255.429C938.602 282.195 914.503 458.036 1124.51 509.659C1292.68 550.995 1510.25 488.478 1656.62 434.576" stroke="black" stroke-opacity="0.3" stroke-miterlimit="10"/>
<path d="M0.0209961 145.252C73.0673 237.631 190.42 365.049 309.37 392.896C361.536 405.12 378.625 395.966 416.171 379.329C435.006 370.977 486.348 350.441 522.098 331.209C590.23 294.576 648.233 248.788 746.825 262.422C935.029 288.464 906.639 467.137 1118.19 521.922C1286.74 565.576 1509.22 505.509 1659.18 453.424" stroke="black" stroke-opacity="0.3" stroke-miterlimit="10"/>
<path d="M0 152.802C58.1277 248.527 154.251 366.672 283.105 388.591C338.912 398.088 374.936 387.274 420.59 369.741C446.735 359.69 488.947 342.263 523.299 325.955C592.953 292.879 657.791 257.168 746.305 269.313C931.316 294.473 898.71 475.964 1111.61 534.082C1280.66 579.936 1507.95 522.411 1661.53 472.171" stroke="black" stroke-opacity="0.3" stroke-miterlimit="10"/>
<path d="M0 160.388C43.1842 259.445 118.526 368.514 256.96 384.321C435.758 404.805 573.618 253.07 745.931 276.306C927.599 300.82 890.627 485.184 1105.18 546.344C1274.49 594.635 1506.83 539.442 1664 491.019" stroke="black" stroke-opacity="0.3" stroke-miterlimit="10"/>
</g>
</svg>
