<svg width="1600" height="868" viewBox="0 0 1600 868" fill="none" xmlns="http://www.w3.org/2000/svg">
<g opacity="0.5" clip-path="url(#clip0_1_187)">
<path d="M-20 718.501C245.235 617.489 388.206 484.267 470.662 375.281C539.398 284.42 538.178 247.251 611.165 179.462C769.554 32.3599 1072.97 -69.0808 1220.02 57.3329C1292.45 119.605 1265.66 198.52 1300.31 347.911C1331.48 482.298 1412.07 667.128 1637.07 868" stroke="black" stroke-opacity="0.3" stroke-miterlimit="10"/>
<path d="M-19.4673 685.911C238.518 599.099 380.059 473.769 462.472 371.773C531.815 285.928 537.453 251.6 614.978 184.975C777.609 45.2102 1062.55 -52.0945 1209.81 65.8578C1285.66 126.608 1268.41 204.173 1309 353.126C1344.74 484.263 1426.98 665.932 1648.1 865.002" stroke="black" stroke-opacity="0.3" stroke-miterlimit="10"/>
<path d="M-18.9395 653.326C231.791 580.71 372.012 463.241 454.291 368.266C524.385 287.355 536.599 255.944 618.801 190.488C785.316 57.898 1052.59 -35.3341 1199.62 74.3782C1279.05 133.652 1271.04 209.75 1317.71 358.337C1357.88 486.191 1441.91 664.722 1659.17 861.982" stroke="black" stroke-opacity="0.3" stroke-miterlimit="10"/>
<path d="M-18.4067 620.736C225.069 562.315 364.109 452.68 446.115 364.73C517.051 288.696 535.611 260.255 622.648 196.005C792.716 70.4045 1043.06 -18.8273 1189.44 82.9023C1272.62 140.696 1273.55 215.262 1326.44 363.552C1370.85 488.091 1456.85 663.512 1670.22 858.975" stroke="black" stroke-opacity="0.3" stroke-miterlimit="10"/>
<path d="M-17.8789 588.15C218.366 543.933 356.363 442.118 437.934 361.243C509.836 289.964 534.536 264.526 626.442 201.517C799.766 82.7253 1033.87 -2.59196 1179.22 91.4259C1266.31 147.752 1275.89 220.738 1335.12 368.766C1383.63 489.982 1471.76 662.305 1681.23 855.944" stroke="black" stroke-opacity="0.3" stroke-miterlimit="10"/>
<path d="M-17.3462 555.565C211.625 525.544 348.799 431.554 429.759 357.736C502.779 291.157 533.295 268.735 630.27 207.036C806.588 94.845 1025.06 13.3701 1169.03 99.9471C1260.18 154.769 1278.06 226.189 1343.83 373.982C1396.28 491.88 1486.69 661.097 1692.28 852.961" stroke="black" stroke-opacity="0.3" stroke-miterlimit="10"/>
<path d="M-16.8184 522.978C204.898 507.176 341.441 421.032 421.578 354.227C495.88 292.284 531.967 272.869 634.088 212.548C813.184 106.763 1016.57 29.0406 1158.83 108.47C1254.2 161.721 1280.14 231.637 1352.54 379.191C1408.77 493.793 1501.63 659.885 1703.32 849.948" stroke="black" stroke-opacity="0.3" stroke-miterlimit="10"/>
<path d="M-16.2632 490.389C198.198 488.768 334.34 410.562 413.425 350.719C489.2 293.377 530.59 276.915 637.933 218.061C819.612 118.48 1008.38 44.4281 1148.66 116.995C1248.4 168.589 1282.05 237.096 1361.27 384.406C1421.12 495.73 1516.54 658.662 1714.37 846.941" stroke="black" stroke-opacity="0.3" stroke-miterlimit="10"/>
<path d="M-15.7529 457.805C191.454 470.379 327.443 400.192 405.226 347.207C482.699 294.453 529.049 280.836 641.739 223.58C825.856 130 1000.41 59.5282 1138.44 125.516C1242.69 175.345 1283.76 242.602 1369.96 389.622C1433.33 497.709 1531.46 657.471 1725.44 843.936" stroke="black" stroke-opacity="0.3" stroke-miterlimit="10"/>
<path d="M-15.2251 425.232C184.732 452.002 320.816 389.969 397.046 343.712C476.398 295.563 527.468 284.708 645.557 229.105C831.96 141.341 992.635 74.3637 1128.24 134.053C1237.11 181.972 1285.33 248.172 1378.67 394.85C1445.42 499.749 1546.39 656.274 1736.46 840.941" stroke="black" stroke-opacity="0.3" stroke-miterlimit="10"/>
<path d="M-14.6924 392.629C178.033 433.599 314.453 379.892 388.875 340.191C470.355 296.719 525.834 288.416 649.384 234.61C837.988 152.471 985.048 88.8985 1118.05 142.56C1231.66 188.402 1286.76 253.794 1387.38 400.052C1457.38 501.817 1561.32 655.051 1747.51 837.912" stroke="black" stroke-opacity="0.3" stroke-miterlimit="10"/>
<path d="M-14.1646 360.043C171.283 415.213 308.328 370.044 380.694 336.682C464.537 298.024 524.162 292.01 653.202 240.122C843.939 163.438 977.594 103.189 1107.85 151.085C1226.31 194.642 1288.03 259.519 1396.08 405.262C1469.25 503.962 1576.24 653.845 1758.54 834.909" stroke="black" stroke-opacity="0.3" stroke-miterlimit="10"/>
<path d="M-13.6318 327.452C164.561 396.822 302.419 360.448 372.518 333.168C458.943 299.535 522.414 295.48 657.03 245.634C849.847 174.236 970.241 117.224 1097.66 159.608C1221.04 200.65 1289.17 265.347 1404.79 410.475C1481.03 506.173 1591.17 652.633 1769.59 831.901" stroke="black" stroke-opacity="0.3" stroke-miterlimit="10"/>
<path d="M-13.0996 294.867C157.843 378.432 296.687 351.134 364.342 329.66C453.546 301.346 520.655 298.822 660.843 251.152C855.711 184.888 962.944 131.05 1087.46 168.128C1215.87 206.394 1290.17 271.303 1413.49 415.691C1492.74 508.462 1606.09 651.437 1780.64 828.881" stroke="black" stroke-opacity="0.3" stroke-miterlimit="10"/>
<path d="M-12.5713 262.283C151.117 360.048 291.065 342.123 356.142 326.153C448.268 303.551 518.855 302.038 664.657 256.666C861.567 195.391 955.673 144.61 1077.25 176.654C1210.75 211.84 1291.04 277.39 1422.19 420.92C1504.36 510.843 1621 650.233 1791.66 825.902" stroke="black" stroke-opacity="0.3" stroke-miterlimit="10"/>
<path d="M-12.0391 229.691C144.418 341.656 285.495 333.416 347.985 322.643C443.105 306.245 517.082 305.12 668.498 262.182C867.441 205.743 948.434 157.978 1067.07 185.172C1205.69 216.954 1291.84 283.601 1430.92 426.116C1515.98 513.275 1635.95 649.008 1802.73 822.875" stroke="black" stroke-opacity="0.3" stroke-miterlimit="10"/>
<path d="M-11.4839 197.107C137.695 323.268 280.57 308.684 339.832 319.132C436.764 336.226 515.313 308.075 672.349 267.696C873.348 216.003 941.146 171.15 1056.88 193.698C1200.63 221.692 1292.52 290.001 1439.63 431.332C1527.53 515.792 1650.87 647.799 1813.77 819.852" stroke="black" stroke-opacity="0.3" stroke-miterlimit="10"/>
<path d="M-10.9785 164.522C130.95 304.878 275.528 303.402 331.629 315.624C429.957 337.044 513.494 310.906 676.144 273.21C879.271 226.117 933.77 184.127 1046.68 202.223C1195.55 226.054 1293.13 296.535 1448.33 436.557C1539.06 518.402 1665.8 646.603 1824.81 816.872" stroke="black" stroke-opacity="0.3" stroke-miterlimit="10"/>
<path d="M-10.4414 131.931C124.232 286.491 269.834 298.637 323.457 312.114C423.555 337.268 511.716 313.609 679.976 278.703C885.236 236.143 926.311 196.952 1036.49 210.719C1190.45 229.958 1293.67 303.206 1457.05 441.738C1550.59 521.046 1680.73 645.369 1835.87 813.832" stroke="black" stroke-opacity="0.3" stroke-miterlimit="10"/>
<path d="M-9.91309 99.3464C117.506 268.103 261.744 301.171 315.282 308.608C420.736 323.223 509.959 316.202 683.8 284.226C891.255 246.087 918.715 209.65 1026.3 219.254C1185.25 233.458 1294.14 310.098 1465.76 446.977C1562.11 523.824 1695.67 644.174 1846.91 810.849" stroke="black" stroke-opacity="0.3" stroke-miterlimit="10"/>
<path d="M-9.38086 66.7598C110.783 249.711 255.079 293.503 307.101 305.094C414.056 328.92 508.215 318.675 687.617 289.742C897.315 255.938 910.95 222.205 1016.1 227.777C1179.94 236.455 1294.58 317.086 1474.46 452.177C1573.62 526.645 1710.58 642.954 1857.96 807.827" stroke="black" stroke-opacity="0.3" stroke-miterlimit="10"/>
<path d="M-8.85254 34.1692C104.062 231.321 247.956 285.827 298.921 301.585C406.761 334.942 506.5 321.04 691.44 295.264C903.444 265.717 902.999 234.662 1005.9 236.305C1174.48 239.015 1294.99 324.264 1483.18 457.396C1585.15 529.529 1725.51 641.756 1869 804.828" stroke="black" stroke-opacity="0.3" stroke-miterlimit="10"/>
</g>
<defs>
<clipPath id="clip0_1_187">
<rect width="1600" height="868" fill="white"/>
</clipPath>
</defs>
</svg>
