<svg width="88" height="21" viewBox="0 0 88 21" fill="none" xmlns="http://www.w3.org/2000/svg">
<path d="M8.48 14.76L8 18.12V0.551998H0.96V21H19.84V14.76H8.48ZM25.2285 6.76H38.8925L35.0525 7.24V14.28L38.8925 14.76H25.1645L28.9725 14.28V7.24L25.2285 6.76ZM42.2205 21V0.551998H21.7725V21H42.2205ZM64.6268 6.76V0.551998H44.1788V21C50.9308 21 57.9068 21 64.6268 21C64.6268 16.648 64.6268 12.328 64.6268 8.008H54.2588V13.768H57.9388V14.76H51.3788L50.8988 17.8C50.8988 8.424 50.8988 12.776 50.8988 3.4L51.3788 6.76C55.6668 6.76 60.3068 6.76 64.6268 6.76ZM70.041 6.76H83.705L79.865 7.24V14.28L83.705 14.76H69.977L73.785 14.28V7.24L70.041 6.76ZM87.033 21V0.551998H66.585V21H87.033Z" fill="black"/>
</svg>
