<svg width="70" height="70" viewBox="0 0 70 70" fill="none" xmlns="http://www.w3.org/2000/svg">
<g clip-path="url(#clip0_1_255)">
<path d="M57.9832 53.8709C59.2665 51.8292 60.0248 49.4667 60.0248 46.9C60.0248 39.6375 54.1623 33.775 46.8998 33.775C39.6373 33.775 33.7748 39.6375 33.7748 46.9C33.7748 54.1625 39.6373 60.025 46.8707 60.025C49.4373 60.025 51.829 59.2667 53.8415 57.9834L62.9415 67.0834L67.0832 62.9417L57.9832 53.8709ZM46.8998 54.1917C42.8748 54.1917 39.6082 50.925 39.6082 46.9C39.6082 42.875 42.8748 39.6084 46.8998 39.6084C50.9248 39.6084 54.1915 42.875 54.1915 46.9C54.1915 50.925 50.9248 54.1917 46.8998 54.1917ZM45.8498 29.4C43.6915 29.4584 41.6207 29.925 39.7248 30.7125L38.1207 28.2917L27.0373 46.3167L18.2582 36.05L7.67067 52.9959L2.9165 49.5834L17.4998 26.25L26.2498 36.4584L37.9165 17.5L45.8498 29.4ZM53.404 30.8584C51.5373 30.0417 49.5248 29.5459 47.4248 29.4292L62.3582 5.83337L67.0832 9.27504L53.404 30.8584Z" fill="#6911AD"/>
</g>
<defs>
<clipPath id="clip0_1_255">
<rect width="70" height="70" fill="white"/>
</clipPath>
</defs>
</svg>
