<svg width="30" height="30" viewBox="0 0 30 30" fill="none" xmlns="http://www.w3.org/2000/svg">
<g clip-path="url(#clip0_20_3474)">
<path d="M15.0002 3.74999C15.1652 3.74999 15.329 3.74999 15.4915 3.74999C13.8856 5.24212 12.8535 7.2498 12.5743 9.42402C12.2952 11.5982 12.7868 13.8015 13.9636 15.6509C15.1405 17.5003 16.9282 18.8788 19.016 19.5468C21.1038 20.2149 23.3596 20.1302 25.3915 19.3075C24.6099 21.1881 23.3325 22.8213 21.6955 24.0328C20.0584 25.2443 18.1233 25.9888 16.0964 26.1867C14.0694 26.3847 12.0268 26.0287 10.1863 25.1567C8.34586 24.2848 6.77661 22.9296 5.64595 21.2357C4.5153 19.5419 3.86565 17.5728 3.76632 15.5387C3.66699 13.5046 4.12169 11.4816 5.08193 9.68563C6.04217 7.88965 7.47192 6.38802 9.21867 5.34091C10.9654 4.29379 12.9637 3.74048 15.0002 3.73999V3.74999Z" stroke="#2C3E50" stroke-width="1.5" stroke-linecap="round" stroke-linejoin="round"/>
</g>
<defs>
<clipPath id="clip0_20_3474">
<rect width="30" height="30" fill="white"/>
</clipPath>
</defs>
</svg>
