<svg width="70" height="70" viewBox="0 0 70 70" fill="none" xmlns="http://www.w3.org/2000/svg">
<g clip-path="url(#clip0_1_284)">
<path d="M26.8043 18.5208C20.8543 25.2 16.771 34.7958 16.3918 35.7L5.8335 31.1791L17.646 19.3666C19.0168 17.9958 21.0002 17.3833 22.9252 17.7625L26.8043 18.5208ZM32.5793 49.5833C32.5793 49.5833 43.4877 45.0625 49.7585 38.7916C65.5085 23.0416 62.8835 10.7333 62.0377 7.96246C59.2668 7.08746 46.9585 4.49162 31.2085 20.2416C24.9377 26.5125 20.4168 37.4208 20.4168 37.4208L32.5793 49.5833ZM51.4793 43.1958C44.8002 49.1458 35.2043 53.2291 34.3002 53.6083L38.821 64.1666L50.6335 52.3541C52.0043 50.9833 52.6168 49 52.2377 47.075L51.4793 43.1958ZM26.2502 52.5C26.2502 54.9208 25.2585 57.1083 23.6835 58.6833C20.2418 62.125 5.8335 64.1666 5.8335 64.1666C5.8335 64.1666 7.87516 49.7583 11.3168 46.3166C12.8918 44.7416 15.0793 43.75 17.5002 43.75C22.3418 43.75 26.2502 47.6583 26.2502 52.5ZM37.9168 26.25C37.9168 23.0416 40.5418 20.4166 43.7502 20.4166C46.9585 20.4166 49.5835 23.0416 49.5835 26.25C49.5835 29.4583 46.9585 32.0833 43.7502 32.0833C40.5418 32.0833 37.9168 29.4583 37.9168 26.25Z" fill="#6911AD"/>
</g>
<defs>
<clipPath id="clip0_1_284">
<rect width="70" height="70" fill="white"/>
</clipPath>
</defs>
</svg>
