<svg width="70" height="70" viewBox="0 0 70 70" fill="none" xmlns="http://www.w3.org/2000/svg">
<g clip-path="url(#clip0_1_239)">
<path d="M55.621 14.3792L51.5085 18.4917C55.7085 22.7209 58.3335 28.5542 58.3335 35C58.3335 47.8917 47.8918 58.3334 35.0002 58.3334C22.1085 58.3334 11.6668 47.8917 11.6668 35C11.6668 23.1 20.5627 13.3 32.0835 11.8709V17.7625C23.8002 19.1625 17.5002 26.3375 17.5002 35C17.5002 44.6542 25.346 52.5 35.0002 52.5C44.6543 52.5 52.5002 44.6542 52.5002 35C52.5002 30.1584 50.546 25.7834 47.3668 22.6334L43.2543 26.7459C45.3543 28.875 46.6668 31.7917 46.6668 35C46.6668 41.4459 41.446 46.6667 35.0002 46.6667C28.5543 46.6667 23.3335 41.4459 23.3335 35C23.3335 29.575 27.0668 25.0542 32.0835 23.7417V29.9834C30.3335 31.0042 29.1668 32.8417 29.1668 35C29.1668 38.2084 31.7918 40.8334 35.0002 40.8334C38.2085 40.8334 40.8335 38.2084 40.8335 35C40.8335 32.8417 39.6668 30.975 37.9168 29.9834V5.83337H35.0002C18.9002 5.83337 5.8335 18.9 5.8335 35C5.8335 51.1 18.9002 64.1667 35.0002 64.1667C51.1002 64.1667 64.1668 51.1 64.1668 35C64.1668 26.95 60.9002 19.6584 55.621 14.3792Z" fill="#6911AD"/>
</g>
<defs>
<clipPath id="clip0_1_239">
<rect width="70" height="70" fill="white"/>
</clipPath>
</defs>
</svg>
